<?xml version="1.0" encoding="utf-8"?>
<!-- Generator: Adobe Illustrator 26.4.1, SVG Export Plug-In . SVG Version: 6.00 Build 0)  -->
<svg version="1.1" id="Слой_1" xmlns="http://www.w3.org/2000/svg" xmlns:xlink="http://www.w3.org/1999/xlink" x="0px" y="0px"
	 viewBox="0 0 448 512" style="enable-background:new 0 0 448 512;" xml:space="preserve">
<style type="text/css">
	.st0{fill:#FF6C6C;}
</style>
<path class="st0" d="M64,32C64,14.3,49.7,0,32,0S0,14.3,0,32v32v304v112c0,17.7,14.3,32,32,32s32-14.3,32-32V352l64.3-16.1
	c41.1-10.3,84.6-5.5,122.5,13.4c44.2,22.1,95.5,24.8,141.7,7.4l34.7-13c12.5-4.7,20.8-16.6,20.8-30V66.1c0-23-24.2-38-44.8-27.7
	l-9.6,4.8c-46.3,23.2-100.8,23.2-147.1,0c-35.1-17.6-75.4-22-113.5-12.5L64,48V32z"/>
</svg>
